<mxfile host="app.diagrams.net" modified="2024-03-23T15:35:12.557Z" agent="Mozilla/5.0 (Windows NT 10.0; Win64; x64) AppleWebKit/537.36 (KHTML, like Gecko) Chrome/122.0.0.0 Safari/537.36" etag="6XBe_7Yi2yJlEq2z5kcV" version="24.0.8" type="github">
  <diagram name="Page-1" id="bElfAJ916uNWT5C03lzp">
    <mxGraphModel dx="297" dy="562" grid="1" gridSize="10" guides="1" tooltips="1" connect="1" arrows="1" fold="1" page="1" pageScale="1" pageWidth="850" pageHeight="1100" math="0" shadow="0">
      <root>
        <mxCell id="0" />
        <mxCell id="1" parent="0" />
        <mxCell id="XxzT5j9qiFzCFvjzufye-4" value="" style="edgeStyle=orthogonalEdgeStyle;rounded=0;orthogonalLoop=1;jettySize=auto;html=1;" edge="1" parent="1" source="XxzT5j9qiFzCFvjzufye-10" target="XxzT5j9qiFzCFvjzufye-3">
          <mxGeometry relative="1" as="geometry" />
        </mxCell>
        <mxCell id="XxzT5j9qiFzCFvjzufye-2" value="Start" style="strokeWidth=2;html=1;shape=mxgraph.flowchart.terminator;whiteSpace=wrap;" vertex="1" parent="1">
          <mxGeometry x="90" y="280" width="100" height="60" as="geometry" />
        </mxCell>
        <mxCell id="XxzT5j9qiFzCFvjzufye-6" value="" style="edgeStyle=orthogonalEdgeStyle;rounded=0;orthogonalLoop=1;jettySize=auto;html=1;" edge="1" parent="1" source="XxzT5j9qiFzCFvjzufye-3" target="XxzT5j9qiFzCFvjzufye-5">
          <mxGeometry relative="1" as="geometry" />
        </mxCell>
        <mxCell id="XxzT5j9qiFzCFvjzufye-3" value="Calculate S length dan T length" style="whiteSpace=wrap;html=1;strokeWidth=2;" vertex="1" parent="1">
          <mxGeometry x="80" y="470" width="120" height="60" as="geometry" />
        </mxCell>
        <mxCell id="XxzT5j9qiFzCFvjzufye-8" value="" style="edgeStyle=orthogonalEdgeStyle;rounded=0;orthogonalLoop=1;jettySize=auto;html=1;" edge="1" parent="1" source="XxzT5j9qiFzCFvjzufye-12" target="XxzT5j9qiFzCFvjzufye-7">
          <mxGeometry relative="1" as="geometry">
            <Array as="points">
              <mxPoint x="270" y="695" />
              <mxPoint x="270" y="430" />
            </Array>
          </mxGeometry>
        </mxCell>
        <mxCell id="XxzT5j9qiFzCFvjzufye-5" value="&lt;div style=&quot;text-align: left;&quot;&gt;&lt;span style=&quot;background-color: initial;&quot;&gt;Create strings matrix&lt;/span&gt;&lt;/div&gt;" style="whiteSpace=wrap;html=1;strokeWidth=2;" vertex="1" parent="1">
          <mxGeometry x="80" y="560" width="120" height="60" as="geometry" />
        </mxCell>
        <mxCell id="XxzT5j9qiFzCFvjzufye-15" value="" style="edgeStyle=orthogonalEdgeStyle;rounded=0;orthogonalLoop=1;jettySize=auto;html=1;" edge="1" parent="1" source="XxzT5j9qiFzCFvjzufye-7" target="XxzT5j9qiFzCFvjzufye-14">
          <mxGeometry relative="1" as="geometry" />
        </mxCell>
        <mxCell id="XxzT5j9qiFzCFvjzufye-16" value="" style="edgeStyle=orthogonalEdgeStyle;rounded=0;orthogonalLoop=1;jettySize=auto;html=1;" edge="1" parent="1" source="XxzT5j9qiFzCFvjzufye-7" target="XxzT5j9qiFzCFvjzufye-14">
          <mxGeometry relative="1" as="geometry" />
        </mxCell>
        <mxCell id="XxzT5j9qiFzCFvjzufye-18" style="edgeStyle=orthogonalEdgeStyle;rounded=0;orthogonalLoop=1;jettySize=auto;html=1;" edge="1" parent="1" source="XxzT5j9qiFzCFvjzufye-7" target="XxzT5j9qiFzCFvjzufye-17">
          <mxGeometry relative="1" as="geometry" />
        </mxCell>
        <mxCell id="XxzT5j9qiFzCFvjzufye-7" value="char[i] of S =&amp;nbsp;&lt;div&gt;char[j] of T?&lt;/div&gt;" style="rhombus;whiteSpace=wrap;html=1;strokeWidth=2;" vertex="1" parent="1">
          <mxGeometry x="350" y="390" width="130" height="80" as="geometry" />
        </mxCell>
        <mxCell id="XxzT5j9qiFzCFvjzufye-11" value="" style="edgeStyle=orthogonalEdgeStyle;rounded=0;orthogonalLoop=1;jettySize=auto;html=1;" edge="1" parent="1" source="XxzT5j9qiFzCFvjzufye-2" target="XxzT5j9qiFzCFvjzufye-10">
          <mxGeometry relative="1" as="geometry">
            <mxPoint x="140" y="340" as="sourcePoint" />
            <mxPoint x="140" y="480" as="targetPoint" />
          </mxGeometry>
        </mxCell>
        <mxCell id="XxzT5j9qiFzCFvjzufye-10" value="Insert string&amp;nbsp;&lt;div&gt;awal (S)&amp;nbsp;&lt;div&gt;and string target&amp;nbsp;&lt;/div&gt;&lt;div&gt;(T)&lt;/div&gt;&lt;/div&gt;" style="shape=parallelogram;html=1;strokeWidth=2;perimeter=parallelogramPerimeter;whiteSpace=wrap;rounded=1;arcSize=12;size=0.23;" vertex="1" parent="1">
          <mxGeometry x="65" y="370" width="150" height="70" as="geometry" />
        </mxCell>
        <mxCell id="XxzT5j9qiFzCFvjzufye-13" value="" style="edgeStyle=orthogonalEdgeStyle;rounded=0;orthogonalLoop=1;jettySize=auto;html=1;" edge="1" parent="1" source="XxzT5j9qiFzCFvjzufye-5" target="XxzT5j9qiFzCFvjzufye-12">
          <mxGeometry relative="1" as="geometry">
            <mxPoint x="140" y="620" as="sourcePoint" />
            <mxPoint x="140" y="760" as="targetPoint" />
          </mxGeometry>
        </mxCell>
        <mxCell id="XxzT5j9qiFzCFvjzufye-12" value="&lt;div style=&quot;text-align: left;&quot;&gt;&lt;span style=&quot;background-color: initial;&quot;&gt;Initialize matrix&lt;/span&gt;&lt;/div&gt;&lt;div style=&quot;text-align: left;&quot;&gt;&lt;span style=&quot;background-color: initial;&quot;&gt;d[0,0] = 0&lt;/span&gt;&lt;/div&gt;&lt;div style=&quot;text-align: left;&quot;&gt;&lt;span style=&quot;background-color: initial;&quot;&gt;d[i,0]=d[i-1,0] + 1&lt;/span&gt;&lt;/div&gt;&lt;div style=&quot;text-align: left;&quot;&gt;&lt;span style=&quot;background-color: initial;&quot;&gt;d[0,j]=d[0,j-1] + 1&lt;/span&gt;&lt;/div&gt;" style="whiteSpace=wrap;html=1;strokeWidth=2;" vertex="1" parent="1">
          <mxGeometry x="80" y="660" width="120" height="70" as="geometry" />
        </mxCell>
        <mxCell id="XxzT5j9qiFzCFvjzufye-20" style="edgeStyle=orthogonalEdgeStyle;rounded=0;orthogonalLoop=1;jettySize=auto;html=1;" edge="1" parent="1" source="XxzT5j9qiFzCFvjzufye-14">
          <mxGeometry relative="1" as="geometry">
            <mxPoint x="430" y="670" as="targetPoint" />
            <Array as="points">
              <mxPoint x="350" y="620" />
              <mxPoint x="430" y="620" />
            </Array>
          </mxGeometry>
        </mxCell>
        <mxCell id="XxzT5j9qiFzCFvjzufye-14" value="d[i,j] min of&lt;div&gt;d[i,j-1]+1&lt;/div&gt;&lt;div&gt;d[i-1,j]+1&lt;/div&gt;&lt;div&gt;d[i-1,j-1]+1&amp;nbsp;&lt;/div&gt;" style="whiteSpace=wrap;html=1;strokeWidth=2;" vertex="1" parent="1">
          <mxGeometry x="290" y="510" width="120" height="60" as="geometry" />
        </mxCell>
        <mxCell id="XxzT5j9qiFzCFvjzufye-19" style="edgeStyle=orthogonalEdgeStyle;rounded=0;orthogonalLoop=1;jettySize=auto;html=1;" edge="1" parent="1" source="XxzT5j9qiFzCFvjzufye-17">
          <mxGeometry relative="1" as="geometry">
            <mxPoint x="430" y="670" as="targetPoint" />
          </mxGeometry>
        </mxCell>
        <mxCell id="XxzT5j9qiFzCFvjzufye-17" value="d[i,j] = d[i-1,j-1]" style="whiteSpace=wrap;html=1;strokeWidth=2;" vertex="1" parent="1">
          <mxGeometry x="430" y="510" width="120" height="60" as="geometry" />
        </mxCell>
        <mxCell id="XxzT5j9qiFzCFvjzufye-29" value="" style="edgeStyle=orthogonalEdgeStyle;rounded=0;orthogonalLoop=1;jettySize=auto;html=1;" edge="1" parent="1" source="XxzT5j9qiFzCFvjzufye-21" target="XxzT5j9qiFzCFvjzufye-28">
          <mxGeometry relative="1" as="geometry" />
        </mxCell>
        <mxCell id="XxzT5j9qiFzCFvjzufye-21" value="print value" style="shape=parallelogram;html=1;strokeWidth=2;perimeter=parallelogramPerimeter;whiteSpace=wrap;rounded=1;arcSize=12;size=0.23;" vertex="1" parent="1">
          <mxGeometry x="375" y="670" width="100" height="60" as="geometry" />
        </mxCell>
        <mxCell id="XxzT5j9qiFzCFvjzufye-31" value="" style="edgeStyle=orthogonalEdgeStyle;rounded=0;orthogonalLoop=1;jettySize=auto;html=1;" edge="1" parent="1" source="XxzT5j9qiFzCFvjzufye-28" target="XxzT5j9qiFzCFvjzufye-30">
          <mxGeometry relative="1" as="geometry" />
        </mxCell>
        <mxCell id="XxzT5j9qiFzCFvjzufye-28" value="&lt;div style=&quot;&quot;&gt;&lt;span style=&quot;&quot;&gt;value of d[i,j] on the bottom right corner is the distance value&lt;/span&gt;&lt;br&gt;&lt;/div&gt;" style="whiteSpace=wrap;html=1;strokeWidth=2;align=center;" vertex="1" parent="1">
          <mxGeometry x="365" y="770" width="120" height="70" as="geometry" />
        </mxCell>
        <mxCell id="XxzT5j9qiFzCFvjzufye-30" value="End" style="strokeWidth=2;html=1;shape=mxgraph.flowchart.terminator;whiteSpace=wrap;" vertex="1" parent="1">
          <mxGeometry x="375" y="880" width="100" height="60" as="geometry" />
        </mxCell>
      </root>
    </mxGraphModel>
  </diagram>
</mxfile>
